<?xml version="1.0" encoding="UTF-8"?>
<svg version="1.1" xmlns="http://www.w3.org/2000/svg" width="512" height="508">
<path d="M0 0 C0.66 0 1.32 0 2 0 C3.05078125 1.3984375 3.05078125 1.3984375 4.3125 3.375 C26.86020784 34.10709217 78.29224265 41.24830066 113.11328125 46.61328125 C123.72477239 48.20091343 134.38219285 49.30589226 145.0625 50.3125 C145.92429871 50.39381165 146.78609741 50.47512329 147.67401123 50.55889893 C167.53435808 52.40085685 187.36984777 53.1636974 207.30566406 53.55224609 C209.88357071 53.60361571 212.46129624 53.66081911 215.0390625 53.71875 C215.82737457 53.73232544 216.61568665 53.74590088 217.42788696 53.7598877 C222.88674002 53.88674002 222.88674002 53.88674002 224 55 C224.10385796 57.40845791 224.14206761 59.78850575 224.1386652 62.19771671 C224.14150742 62.96370384 224.14434964 63.72969096 224.14727798 64.51888981 C224.15568472 67.11856587 224.15689783 69.71819771 224.15821838 72.31788635 C224.16277968 74.18728506 224.16777905 76.05668275 224.17318195 77.92607921 C224.18682181 83.08873055 224.19419824 88.25137528 224.20060861 93.41403997 C224.208587 98.97168279 224.22229352 104.52931172 224.23532104 110.08694458 C224.25712028 119.72445302 224.2752521 129.36196284 224.29092598 138.99948311 C224.31359331 152.93389427 224.34174042 166.86829007 224.37124526 180.80268823 C224.41895974 203.40775886 224.46222197 226.01283544 224.50268555 248.61791992 C224.54201365 270.58276864 224.58343087 292.5476118 224.62768555 314.51245117 C224.62904808 315.18912697 224.63041061 315.86580278 224.63181442 316.5629839 C224.64549943 323.35824453 224.659227 330.15350507 224.67298577 336.94876554 C224.78842761 393.965832 224.89668067 450.98291037 225 508 C224.34 508 223.68 508 223 508 C222.73485596 507.49364014 222.46971191 506.98728027 222.1965332 506.46557617 C196.43239433 457.61088369 160.45589981 416.87345598 111 392 C110.03481445 391.51321777 109.06962891 391.02643555 108.07519531 390.52490234 C100.2920149 386.60428027 92.50081248 382.69933955 84.6640625 378.88671875 C71.48166635 372.44676797 58.17745265 365.61706752 47 356 C48.47106562 352.59049896 50.3979224 350.43781043 53 347.8125 C77.14742111 321.22320484 83.6497105 281.70120207 82 247 C79.37424882 214.38598222 68.36593346 179.90786677 42.734375 158.03125 C28.60744684 147.53696051 14.59694745 143.0360238 -3 144 C-10.30734577 145.09956506 -16.5771915 147.46710019 -23.0390625 151.01171875 C-25 152 -25 152 -27 152 C-27.65209053 104.01951329 -27.75975798 41.63963697 0 0 Z " fill="#602374" transform="translate(27,0)"/>
<path d="M0 0 C0.99 0 1.98 0 3 0 C18.27116196 37.29416916 29.32361037 77.31125821 29.09765625 117.91796875 C29.09553383 119.39285515 29.09553383 119.39285515 29.09336853 120.89753723 C29.08783463 123.99422433 29.07529514 127.09083528 29.0625 130.1875 C29.05747644 132.30533749 29.05291504 134.42317612 29.04882812 136.54101562 C29.03788698 141.69403912 29.02066921 146.84700671 29 152 C28.24460937 151.69586182 27.48921875 151.39172363 26.7109375 151.07836914 C23.49591063 149.79948102 20.25448707 148.61234178 17 147.4375 C15.205625 146.78587891 15.205625 146.78587891 13.375 146.12109375 C-0.21912772 141.60545179 -14.01037351 143.62371889 -26.93359375 149.28515625 C-51.4723328 161.78076947 -65.06870315 186.05824448 -73.4375 211.234375 C-85.54874979 249.92614465 -81.81440986 293.78438222 -63.1875 329.6875 C-58.88907929 337.69317847 -53.82313282 345.34402814 -47.23046875 351.6484375 C-45 354 -45 354 -45 357 C-47.29700773 358.79141636 -49.53847459 360.33599471 -52 361.875 C-53.13211914 362.59248413 -53.13211914 362.59248413 -54.28710938 363.32446289 C-69.50694784 372.8093562 -85.49299572 380.86527614 -101.68212891 388.54174805 C-120.12358125 397.30223392 -137.44339617 405.77680912 -152.53125 419.71875 C-155.00423599 422.00391427 -157.53051817 424.21810852 -160.0625 426.4375 C-164.24625069 430.20352831 -168.02706347 434.19348329 -171.734375 438.42578125 C-173.23857793 440.13486699 -174.77000421 441.82039039 -176.328125 443.48046875 C-191.89525993 460.07704325 -204.72390994 479.14168348 -215.9675293 498.87109375 C-216.95404506 500.59486989 -217.97341336 502.29978313 -219 504 C-219.33 504 -219.66 504 -220 504 C-220.77646132 449.18311716 -221.14555396 394.37814023 -221.10353777 339.55596856 C-221.09613671 329.61839916 -221.09486632 319.680831 -221.09374207 309.74325923 C-221.0915909 292.04311112 -221.085042 274.3429678 -221.07543945 256.64282227 C-221.06616041 239.52042666 -221.05913203 222.3980324 -221.05493164 205.27563477 C-221.05466892 204.20771288 -221.05440619 203.13979099 -221.05413551 202.03950783 C-221.05282981 196.67832576 -221.05156626 191.31714367 -221.05032361 185.95596159 C-221.04007452 141.97063775 -221.02256883 97.98531913 -221 54 C-219.90334518 53.97396194 -218.80669037 53.94792389 -217.67680359 53.9210968 C-213.52668521 53.82199075 -209.37663956 53.72006913 -205.22660828 53.61738586 C-203.44568153 53.57369424 -201.66473698 53.53072122 -199.8837738 53.48854065 C-99.81799823 51.83072278 -99.81799823 51.83072278 -11 12 C-10.40058594 11.55011719 -9.80117188 11.10023437 -9.18359375 10.63671875 C-6.33317157 8.44353677 -4.31144564 6.13579741 -2.3125 3.1875 C-1.1678125 1.6096875 -1.1678125 1.6096875 0 0 Z " fill="#A21560" transform="translate(483,0)"/>
</svg>
